<mxfile host="app.diagrams.net" modified="2022-01-15T14:10:55.721Z" agent="5.0 (Macintosh; Intel Mac OS X 10_15_7) AppleWebKit/537.36 (KHTML, like Gecko) Chrome/97.0.4692.71 Safari/537.36" etag="QaNXFdNdLVV7RvYz_YQj" version="16.2.1" type="github">
  <diagram id="O_6klfBwwiDGLurZtnUx" name="Page-1">
    <mxGraphModel dx="969" dy="614" grid="1" gridSize="10" guides="1" tooltips="1" connect="1" arrows="1" fold="1" page="1" pageScale="1" pageWidth="827" pageHeight="1169" math="0" shadow="0">
      <root>
        <mxCell id="0" />
        <mxCell id="1" parent="0" />
        <mxCell id="MrW833mW-u8eSEEagUty-33" style="edgeStyle=orthogonalEdgeStyle;rounded=0;orthogonalLoop=1;jettySize=auto;html=1;exitX=1;exitY=0.5;exitDx=0;exitDy=0;entryX=0;entryY=0.5;entryDx=0;entryDy=0;strokeColor=#999999;" edge="1" parent="1" source="MrW833mW-u8eSEEagUty-13" target="MrW833mW-u8eSEEagUty-10">
          <mxGeometry relative="1" as="geometry" />
        </mxCell>
        <mxCell id="MrW833mW-u8eSEEagUty-39" style="edgeStyle=orthogonalEdgeStyle;rounded=0;orthogonalLoop=1;jettySize=auto;html=1;exitX=0.5;exitY=1;exitDx=0;exitDy=0;entryX=0.5;entryY=0;entryDx=0;entryDy=0;entryPerimeter=0;startArrow=classic;startFill=1;dashed=1;strokeColor=#999999;" edge="1" parent="1" source="MrW833mW-u8eSEEagUty-13" target="MrW833mW-u8eSEEagUty-20">
          <mxGeometry relative="1" as="geometry" />
        </mxCell>
        <mxCell id="MrW833mW-u8eSEEagUty-13" value="" style="rounded=0;whiteSpace=wrap;html=1;dashed=1;fillColor=#d5e8d4;strokeColor=#82b366;" vertex="1" parent="1">
          <mxGeometry x="140" y="279" width="470" height="80" as="geometry" />
        </mxCell>
        <mxCell id="MrW833mW-u8eSEEagUty-25" value="" style="edgeStyle=orthogonalEdgeStyle;rounded=0;orthogonalLoop=1;jettySize=auto;html=1;strokeColor=#999999;" edge="1" parent="1" source="MrW833mW-u8eSEEagUty-2" target="MrW833mW-u8eSEEagUty-3">
          <mxGeometry relative="1" as="geometry" />
        </mxCell>
        <mxCell id="MrW833mW-u8eSEEagUty-2" value="数据分析" style="rounded=0;whiteSpace=wrap;html=1;fillColor=#dae8fc;strokeColor=#6c8ebf;fontColor=#666666;fontStyle=1" vertex="1" parent="1">
          <mxGeometry x="20" y="120" width="120" height="60" as="geometry" />
        </mxCell>
        <mxCell id="MrW833mW-u8eSEEagUty-40" style="edgeStyle=orthogonalEdgeStyle;rounded=0;orthogonalLoop=1;jettySize=auto;html=1;entryX=0;entryY=0.5;entryDx=0;entryDy=0;entryPerimeter=0;startArrow=none;startFill=0;strokeColor=#999999;" edge="1" parent="1" source="MrW833mW-u8eSEEagUty-3" target="MrW833mW-u8eSEEagUty-7">
          <mxGeometry relative="1" as="geometry" />
        </mxCell>
        <mxCell id="MrW833mW-u8eSEEagUty-3" value="模型探索、试验" style="rounded=0;whiteSpace=wrap;html=1;fillColor=#dae8fc;strokeColor=#6c8ebf;fontStyle=1;fontColor=#666666;" vertex="1" parent="1">
          <mxGeometry x="164" y="120" width="126" height="60" as="geometry" />
        </mxCell>
        <mxCell id="MrW833mW-u8eSEEagUty-38" style="edgeStyle=orthogonalEdgeStyle;rounded=0;orthogonalLoop=1;jettySize=auto;html=1;entryX=0.5;entryY=0;entryDx=0;entryDy=0;startArrow=classic;startFill=1;fontColor=#999999;strokeColor=#999999;" edge="1" parent="1" source="MrW833mW-u8eSEEagUty-4" target="MrW833mW-u8eSEEagUty-3">
          <mxGeometry relative="1" as="geometry" />
        </mxCell>
        <mxCell id="MrW833mW-u8eSEEagUty-4" value="误差分析" style="rounded=0;whiteSpace=wrap;html=1;fillColor=#dae8fc;strokeColor=#6c8ebf;fontColor=#666666;fontStyle=1;fontSize=12;" vertex="1" parent="1">
          <mxGeometry x="164" y="30" width="126" height="60" as="geometry" />
        </mxCell>
        <mxCell id="MrW833mW-u8eSEEagUty-26" style="edgeStyle=orthogonalEdgeStyle;rounded=0;orthogonalLoop=1;jettySize=auto;html=1;exitX=0.5;exitY=0;exitDx=0;exitDy=0;exitPerimeter=0;entryX=0.5;entryY=1;entryDx=0;entryDy=0;strokeColor=#999999;" edge="1" parent="1" source="MrW833mW-u8eSEEagUty-5" target="MrW833mW-u8eSEEagUty-2">
          <mxGeometry relative="1" as="geometry" />
        </mxCell>
        <mxCell id="MrW833mW-u8eSEEagUty-27" style="edgeStyle=orthogonalEdgeStyle;rounded=0;orthogonalLoop=1;jettySize=auto;html=1;exitX=0.5;exitY=1;exitDx=0;exitDy=0;exitPerimeter=0;entryX=0;entryY=0.5;entryDx=0;entryDy=0;strokeColor=#999999;" edge="1" parent="1" source="MrW833mW-u8eSEEagUty-5" target="MrW833mW-u8eSEEagUty-14">
          <mxGeometry relative="1" as="geometry">
            <Array as="points">
              <mxPoint x="80" y="323" />
            </Array>
          </mxGeometry>
        </mxCell>
        <mxCell id="MrW833mW-u8eSEEagUty-5" value="特征存储" style="shape=cylinder3;whiteSpace=wrap;html=1;boundedLbl=1;backgroundOutline=1;size=15;fillColor=#f5f5f5;fontColor=#666666;strokeColor=#666666;" vertex="1" parent="1">
          <mxGeometry x="45" y="208" width="70" height="100" as="geometry" />
        </mxCell>
        <mxCell id="MrW833mW-u8eSEEagUty-41" style="edgeStyle=orthogonalEdgeStyle;rounded=0;orthogonalLoop=1;jettySize=auto;html=1;exitX=1;exitY=0.5;exitDx=0;exitDy=0;exitPerimeter=0;entryX=0;entryY=0.5;entryDx=0;entryDy=0;startArrow=none;startFill=0;strokeColor=#999999;" edge="1" parent="1" source="MrW833mW-u8eSEEagUty-7" target="MrW833mW-u8eSEEagUty-8">
          <mxGeometry relative="1" as="geometry" />
        </mxCell>
        <mxCell id="MrW833mW-u8eSEEagUty-7" value="代码仓库" style="shape=cylinder3;whiteSpace=wrap;html=1;boundedLbl=1;backgroundOutline=1;size=15;fillColor=#f5f5f5;fontColor=#666666;strokeColor=#666666;" vertex="1" parent="1">
          <mxGeometry x="320" y="120" width="60" height="60" as="geometry" />
        </mxCell>
        <mxCell id="MrW833mW-u8eSEEagUty-42" style="edgeStyle=orthogonalEdgeStyle;rounded=0;orthogonalLoop=1;jettySize=auto;html=1;exitX=0.5;exitY=1;exitDx=0;exitDy=0;entryX=0.5;entryY=0;entryDx=0;entryDy=0;startArrow=none;startFill=0;strokeColor=#999999;" edge="1" parent="1" source="MrW833mW-u8eSEEagUty-8" target="MrW833mW-u8eSEEagUty-9">
          <mxGeometry relative="1" as="geometry" />
        </mxCell>
        <mxCell id="MrW833mW-u8eSEEagUty-8" value="CI：构建、测试、打包等" style="rounded=0;whiteSpace=wrap;html=1;fillColor=#dae8fc;strokeColor=#6c8ebf;fontStyle=1;fontColor=#666666;" vertex="1" parent="1">
          <mxGeometry x="410" y="120" width="200" height="60" as="geometry" />
        </mxCell>
        <mxCell id="MrW833mW-u8eSEEagUty-43" style="edgeStyle=orthogonalEdgeStyle;rounded=0;orthogonalLoop=1;jettySize=auto;html=1;entryX=0.5;entryY=0;entryDx=0;entryDy=0;startArrow=none;startFill=0;exitX=0;exitY=0.5;exitDx=0;exitDy=0;strokeColor=#999999;" edge="1" parent="1" source="MrW833mW-u8eSEEagUty-9" target="MrW833mW-u8eSEEagUty-13">
          <mxGeometry relative="1" as="geometry" />
        </mxCell>
        <mxCell id="MrW833mW-u8eSEEagUty-9" value="CD：部署Pipelines" style="rounded=0;whiteSpace=wrap;html=1;fillColor=#d5e8d4;strokeColor=#82b366;fontStyle=1;fontColor=#666666;" vertex="1" parent="1">
          <mxGeometry x="410" y="197" width="200" height="60" as="geometry" />
        </mxCell>
        <mxCell id="MrW833mW-u8eSEEagUty-34" style="edgeStyle=orthogonalEdgeStyle;rounded=0;orthogonalLoop=1;jettySize=auto;html=1;exitX=0.5;exitY=1;exitDx=0;exitDy=0;strokeColor=#999999;" edge="1" parent="1" source="MrW833mW-u8eSEEagUty-10" target="MrW833mW-u8eSEEagUty-11">
          <mxGeometry relative="1" as="geometry" />
        </mxCell>
        <mxCell id="MrW833mW-u8eSEEagUty-10" value="CD：模型服务" style="rounded=0;whiteSpace=wrap;html=1;fillColor=#d5e8d4;strokeColor=#82b366;fontStyle=1;fontColor=#666666;" vertex="1" parent="1">
          <mxGeometry x="643" y="281.5" width="97" height="73.5" as="geometry" />
        </mxCell>
        <mxCell id="MrW833mW-u8eSEEagUty-35" style="edgeStyle=orthogonalEdgeStyle;rounded=0;orthogonalLoop=1;jettySize=auto;html=1;entryX=1;entryY=0.5;entryDx=0;entryDy=0;strokeColor=#999999;" edge="1" parent="1" source="MrW833mW-u8eSEEagUty-11" target="MrW833mW-u8eSEEagUty-21">
          <mxGeometry relative="1" as="geometry" />
        </mxCell>
        <mxCell id="MrW833mW-u8eSEEagUty-11" value="预测服务" style="rounded=1;whiteSpace=wrap;html=1;fillColor=#d5e8d4;strokeColor=#82b366;fontStyle=1;fontColor=#666666;" vertex="1" parent="1">
          <mxGeometry x="631.5" y="500" width="120" height="60" as="geometry" />
        </mxCell>
        <mxCell id="MrW833mW-u8eSEEagUty-28" style="edgeStyle=orthogonalEdgeStyle;rounded=0;orthogonalLoop=1;jettySize=auto;html=1;exitX=1;exitY=0.5;exitDx=0;exitDy=0;entryX=0;entryY=0.5;entryDx=0;entryDy=0;strokeColor=#999999;dashed=1;" edge="1" parent="1" source="MrW833mW-u8eSEEagUty-14" target="MrW833mW-u8eSEEagUty-15">
          <mxGeometry relative="1" as="geometry" />
        </mxCell>
        <mxCell id="MrW833mW-u8eSEEagUty-14" value="数据提取" style="rounded=0;whiteSpace=wrap;html=1;fillColor=#ffe6cc;strokeColor=#d79b00;fontColor=#666666;" vertex="1" parent="1">
          <mxGeometry x="164" y="305.75" width="60" height="35" as="geometry" />
        </mxCell>
        <mxCell id="MrW833mW-u8eSEEagUty-29" style="edgeStyle=orthogonalEdgeStyle;rounded=0;orthogonalLoop=1;jettySize=auto;html=1;exitX=1;exitY=0.5;exitDx=0;exitDy=0;entryX=0;entryY=0.5;entryDx=0;entryDy=0;strokeColor=#999999;dashed=1;" edge="1" parent="1" source="MrW833mW-u8eSEEagUty-15" target="MrW833mW-u8eSEEagUty-16">
          <mxGeometry relative="1" as="geometry" />
        </mxCell>
        <mxCell id="MrW833mW-u8eSEEagUty-15" value="数据检验" style="rounded=0;whiteSpace=wrap;html=1;fillColor=#ffe6cc;strokeColor=#d79b00;fontColor=#666666;" vertex="1" parent="1">
          <mxGeometry x="250" y="305.75" width="60" height="35" as="geometry" />
        </mxCell>
        <mxCell id="MrW833mW-u8eSEEagUty-30" style="edgeStyle=orthogonalEdgeStyle;rounded=0;orthogonalLoop=1;jettySize=auto;html=1;exitX=1;exitY=0.5;exitDx=0;exitDy=0;entryX=0;entryY=0.5;entryDx=0;entryDy=0;strokeColor=#999999;dashed=1;" edge="1" parent="1" source="MrW833mW-u8eSEEagUty-16" target="MrW833mW-u8eSEEagUty-17">
          <mxGeometry relative="1" as="geometry" />
        </mxCell>
        <mxCell id="MrW833mW-u8eSEEagUty-16" value="数据预处理" style="rounded=0;whiteSpace=wrap;html=1;fillColor=#ffe6cc;strokeColor=#d79b00;fontColor=#666666;" vertex="1" parent="1">
          <mxGeometry x="330" y="305.75" width="70" height="35" as="geometry" />
        </mxCell>
        <mxCell id="MrW833mW-u8eSEEagUty-31" style="edgeStyle=orthogonalEdgeStyle;rounded=0;orthogonalLoop=1;jettySize=auto;html=1;exitX=1;exitY=0.5;exitDx=0;exitDy=0;entryX=0;entryY=0.5;entryDx=0;entryDy=0;strokeColor=#999999;dashed=1;" edge="1" parent="1" source="MrW833mW-u8eSEEagUty-17" target="MrW833mW-u8eSEEagUty-18">
          <mxGeometry relative="1" as="geometry" />
        </mxCell>
        <mxCell id="MrW833mW-u8eSEEagUty-17" value="模型训练" style="rounded=0;whiteSpace=wrap;html=1;fillColor=#ffe6cc;strokeColor=#d79b00;fontColor=#666666;" vertex="1" parent="1">
          <mxGeometry x="426" y="305.75" width="60" height="35" as="geometry" />
        </mxCell>
        <mxCell id="MrW833mW-u8eSEEagUty-32" style="edgeStyle=orthogonalEdgeStyle;rounded=0;orthogonalLoop=1;jettySize=auto;html=1;exitX=0.5;exitY=1;exitDx=0;exitDy=0;entryX=0.5;entryY=0;entryDx=0;entryDy=0;dashed=1;strokeColor=#999999;" edge="1" parent="1" source="MrW833mW-u8eSEEagUty-18" target="MrW833mW-u8eSEEagUty-19">
          <mxGeometry relative="1" as="geometry" />
        </mxCell>
        <mxCell id="MrW833mW-u8eSEEagUty-18" value="模型评估" style="rounded=0;whiteSpace=wrap;html=1;fillColor=#ffe6cc;strokeColor=#d79b00;fontColor=#666666;" vertex="1" parent="1">
          <mxGeometry x="519" y="305.75" width="60" height="35" as="geometry" />
        </mxCell>
        <mxCell id="MrW833mW-u8eSEEagUty-19" value="模型注册表" style="shape=document;whiteSpace=wrap;html=1;boundedLbl=1;fillColor=#e1d5e7;strokeColor=#9673a6;fontColor=#666666;" vertex="1" parent="1">
          <mxGeometry x="514" y="412.5" width="70" height="50" as="geometry" />
        </mxCell>
        <mxCell id="MrW833mW-u8eSEEagUty-20" value="模型元数据" style="shape=cylinder3;whiteSpace=wrap;html=1;boundedLbl=1;backgroundOutline=1;size=15;fillColor=#f5f5f5;fontColor=#666666;strokeColor=#666666;" vertex="1" parent="1">
          <mxGeometry x="275" y="408.75" width="200" height="57.5" as="geometry" />
        </mxCell>
        <mxCell id="MrW833mW-u8eSEEagUty-36" style="edgeStyle=orthogonalEdgeStyle;rounded=0;orthogonalLoop=1;jettySize=auto;html=1;exitX=0;exitY=0.5;exitDx=0;exitDy=0;entryX=0.5;entryY=1;entryDx=0;entryDy=0;strokeColor=#999999;" edge="1" parent="1" source="MrW833mW-u8eSEEagUty-21" target="MrW833mW-u8eSEEagUty-23">
          <mxGeometry relative="1" as="geometry" />
        </mxCell>
        <mxCell id="MrW833mW-u8eSEEagUty-21" value="模型监控（性能、数据变化、指标、错误等）" style="rounded=0;whiteSpace=wrap;html=1;fillColor=#d5e8d4;strokeColor=#82b366;fontStyle=1;fontColor=#666666;" vertex="1" parent="1">
          <mxGeometry x="180" y="500" width="340" height="60" as="geometry" />
        </mxCell>
        <mxCell id="MrW833mW-u8eSEEagUty-37" style="edgeStyle=orthogonalEdgeStyle;rounded=0;orthogonalLoop=1;jettySize=auto;html=1;exitX=0.5;exitY=0;exitDx=0;exitDy=0;entryX=0;entryY=0.5;entryDx=0;entryDy=0;strokeColor=#999999;" edge="1" parent="1" source="MrW833mW-u8eSEEagUty-23" target="MrW833mW-u8eSEEagUty-14">
          <mxGeometry relative="1" as="geometry" />
        </mxCell>
        <mxCell id="MrW833mW-u8eSEEagUty-23" value="触发策略" style="rounded=0;whiteSpace=wrap;html=1;fillColor=#d5e8d4;strokeColor=#82b366;fontStyle=1;fontColor=#666666;" vertex="1" parent="1">
          <mxGeometry x="20" y="405" width="120" height="55" as="geometry" />
        </mxCell>
        <mxCell id="MrW833mW-u8eSEEagUty-44" value="自动化pipeline" style="text;html=1;strokeColor=none;fillColor=none;align=center;verticalAlign=middle;whiteSpace=wrap;rounded=0;dashed=1;fontSize=12;fontColor=#999999;" vertex="1" parent="1">
          <mxGeometry x="140" y="277.5" width="110" height="30" as="geometry" />
        </mxCell>
      </root>
    </mxGraphModel>
  </diagram>
</mxfile>
